<?xml version="1.0" encoding="UTF-8" standalone="no"?>
<!-- Created with Inkscape (http://www.inkscape.org/) -->

<svg
   xmlns:dc="http://purl.org/dc/elements/1.1/"
   xmlns:cc="http://creativecommons.org/ns#"
   xmlns:rdf="http://www.w3.org/1999/02/22-rdf-syntax-ns#"
   xmlns:svg="http://www.w3.org/2000/svg"
   xmlns="http://www.w3.org/2000/svg"
   version="1.1"
   width="79.849998"
   height="83.599998"
   viewBox="-39.9 -73.8 79.85 83.6"
   id="svg2">
  <metadata
     id="metadata41">
    <rdf:RDF>
      <cc:Work
         rdf:about="">
        <dc:format>image/svg+xml</dc:format>
        <dc:type
           rdf:resource="http://purl.org/dc/dcmitype/StillImage" />
        <dc:title></dc:title>
      </cc:Work>
    </rdf:RDF>
  </metadata>
  <defs
     id="defs39" />
  <g
     id="shape_1"
     style="stroke-linecap:round;stroke-linejoin:round">
    <path
       d="m 16.95,-64.4 m 0,0 -5.9,-5.65 -0.85,-0.6 1.15,3.75 1,3 0.1,0.05 0.4,1.4 0.3,0 q 0.35,0.35 1.35,0.4 1.15,0.45 1.8,-1 l 0.65,-1.35 m -7,-6.4 q -3.4,-1.95 -8.4,-0.45 -3.2,1.9 -4.65,4.2 l -1.1,2.55 q -0.3,1.3 0.25,2.6 1.8,-0.1 3.3,1.8 l 0.25,-0.1 0.45,0.1 0.2,0.2 q 0.25,0.2 0.1,0.5 L 0,-59.1 q 0.65,1.3 1,3.2 0.35,1.65 0.05,3.2 -0.35,1.9 -1.55,2.7 -0.65,0.45 -1.2,0.6 l -0.05,0.75 -1,1.5 q 0.9,0.4 1.25,1.45 l 0.85,-0.2 q 1.45,-0.05 2.2,1.3 0.8,-1 1.85,-0.85 0.9,0.15 1.6,1.1 0.1,-1.75 1.25,-1.85 0.65,-0.15 1.05,0.35 l 0.4,-0.75 1,-0.65 -1.85,-0.1 q -3.2,-1.1 -1.7,-5.5 0.2,-1.2 0.85,-2.55 1.85,-4 4.8,-4 l 1.2,-1.75 0.75,-1.15 -0.4,-1.55 L 11,-67.4 9.95,-70.8 m 1.3,11.45 0.4,0.1 0.6,-0.1 1.5,1.05 q 0.8,0.7 0.95,1.55 0.6,2.95 -0.9,5.5 -0.75,1.3 -2,2.35 -1.45,1.25 -2.85,1.6 l 0.55,0.1 0.75,0.35 2.3,-0.1 2.05,-0.15 q 0.9,-0.3 1,-1.65 l 0.15,-1.85 q 0.1,-1.1 0.45,-1.7 l 0.25,-0.35 q 0.3,-1.5 1.05,-2.85 1.35,-2.3 3.05,-1.65 0.15,-2.5 -1.4,-4.6 l -1.95,-2.35 -1.1,1.8 -0.75,0.45 -0.9,0.05 -1.1,-0.1 -0.8,0.6 q -0.65,1.3 -1.3,1.95 M 1.35,-66 q 0.55,-1.7 2.2,-2.7 1.1,-0.7 3.35,-1.35 l 0.85,0.15 0.45,0.4 0.1,0.1 q 0.85,1.2 1.95,4.6 0.65,1.75 -0.2,3.15 Q 9.1,-60 7.5,-59.4 5.8,-58.8 4.35,-59.9 2.9,-60.95 1.95,-62.55 0.85,-64.5 1.35,-66 m 5,4.45 -0.1,0.05 -0.1,0 -0.4,0.1 1,0.2 0.35,-0.15 -0.3,-0.3 -0.45,0.1 M 3.2,-56.1 2.35,-56.15 2,-56.7 q -0.2,-0.65 0.55,-0.85 0.75,-0.2 0.85,0.45 l 0,0.1 q 0.25,0.5 -0.2,0.9 m -0.4,0.75 1.35,-0.1 0.3,0.3 q 0.35,0.5 0,1.05 l -0.05,0.05 0,0.1 q -0.3,0.75 -1,0.75 -0.4,0 -0.75,-0.3 -0.3,-0.35 -0.3,-0.75 l 0.05,-0.25 0.05,-0.05 q 0.1,-0.5 0.35,-0.8 m -1.9,6.55 q 0.75,-1.2 1.65,-2 l 0.4,-0.1 0.25,0.15 q 0.35,0.75 0.25,2.05 0.2,1.15 -0.1,1.6 l -0.1,0.05 -0.15,0.15 0,0.05 -0.25,-0.05 q -0.3,-0.3 -0.3,-1 l -0.2,-1.05 -0.6,0.65 Q 1.5,-47.95 1.1,-48.15 0.7,-48.4 0.9,-48.8 m 15.95,-12.5 q 0.7,0.1 1.25,0.55 0.55,0.55 0.5,1.25 -0.05,0.95 -0.75,1.5 -0.8,0.65 -1.65,0.15 l -0.3,-0.25 -0.05,0 q -0.4,-0.05 -0.65,-0.4 -0.25,-0.35 -0.2,-0.7 l 0.05,-0.1 -0.3,0.2 q -0.35,0.2 -0.8,0 l -0.05,0 q -0.35,-0.15 -0.35,-0.65 0,-0.5 0.35,-0.65 l 0.05,-0.05 0.8,0.05 0.4,0.55 0.35,-0.8 q 0.55,-0.75 1.35,-0.65 m -1.25,5.85 q -0.25,-0.35 -0.2,-0.6 0.1,-0.85 0.85,-0.6 0.8,0.25 0.4,0.95 l -0.25,0.25 q -0.45,0.45 -0.8,0 m -11.55,20.2 0.05,0.2 0.85,-0.5 q 2,-1.3 1.95,-3 0,-0.55 -0.55,-0.6 -0.55,-0.05 -0.7,0.45 -0.4,1.45 -1.8,2.85 l 0.2,0.6 m -0.25,-0.1 -0.1,-0.35 -1.05,0.85 0.05,0.1 0.85,-0.05 0.3,-0.15 -0.05,-0.4 m 2.5,13.9 -0.15,-0.1 0.1,0.05 0.05,0.05 M 2,-31.4 q 0.3,0.2 0.8,0 l 0.8,-0.4 0.8,-0.5 q 0.45,-0.35 0.5,-0.75 l -0.05,-0.1 Q 4.5,-33.2 3.45,-32.5 l -0.8,0.45 -0.6,0.25 q -0.2,0.25 -0.05,0.4 m 1.35,1.65 -0.8,0.4 -0.6,0.2 q -0.15,0.15 0,0.15 0.4,0.35 1.55,-0.25 1.3,-0.5 1.25,-1.1 l -0.1,-0.15 q -0.25,0 -0.65,0.3 l -0.65,0.45 m 0.9,3.15 0,0.25 0.25,0 0.05,0 0.1,-0.3 0.05,0 0.3,-0.1 0.2,-0.3 0.6,-0.65 0,-0.1 -0.15,0 -0.85,0.45 q -0.4,0.25 -0.25,0.6 l 0,0.05 -0.3,0.05 0,0.05 m 9.7,10.85 -0.5,0.15 -0.4,0.05 -0.3,0.2 -0.65,-0.75 -1.1,-1.65 q -1.15,-1.4 -3.55,-2.65 l -0.05,0.05 1.85,1.7 1.7,1.8 1.7,2.05 -0.3,0.4 q -0.35,0.55 -0.25,0.9 0.1,0.4 0.5,0.4 l 0.5,-0.4 0.45,-0.6 0.1,-0.1 0.1,-0.05 0.15,0 q 0.45,-0.15 0.6,-0.8 l -0.1,-0.5 -0.45,-0.2 m -8.2,-6.75 q -0.45,0.2 -0.45,0.75 l 0.05,0.35 -0.45,-0.15 q -0.65,0 -0.65,0.7 0,0.65 0.65,0.65 0.65,0 0.65,-0.65 l 0,-0.2 0.6,0.25 q 0.6,0.05 1.05,-0.25 0.55,-0.3 0.55,-0.85 0,-0.95 -1,-1.1 -0.75,-0.1 -1,0.5 M -4.9,-38.1 q -0.95,-1.05 -1.5,-2.7 l -0.25,-0.7 -0.4,-0.55 -0.25,0.05 q -1.15,1.05 0.65,4.15 l 1.25,1.7 0.4,-0.55 q 0.15,-0.15 0.15,0.05 l 0.35,0.55 -0.05,0.05 -0.35,-0.4 -0.3,0.5 0.25,0.25 q 1.3,1.2 2.35,1.1 0.6,-0.1 0.45,-0.6 l -0.8,-1.05 -0.15,-0.15 -0.15,-0.1 -0.85,0.75 0.8,-0.8 -1.6,-1.55 m -5.1,-0.1 q 0.15,1.3 1.7,3.05 1.85,2.05 3.45,2.7 0.3,0.15 0.6,-0.15 0.25,-0.3 0.05,-0.65 l -0.5,-0.35 q -0.6,-0.3 -1.35,-0.95 -2.25,-1.8 -3,-3.75 l -0.55,-0.35 q -0.45,0.05 -0.4,0.45 m -0.4,5.2 0.9,1.1 1.05,0.9 q 1.15,1.05 2.45,1.35 0.4,0 0.5,-0.25 l 0.1,-0.1 q 0.15,-0.1 0,-0.25 l -0.5,-0.35 q -0.75,-0.05 -1.75,-0.6 -1.6,-0.9 -2.55,-1.95 l -0.15,0 -0.05,0.15 m 0.7,6.65 0.15,0.25 0.3,0.05 0.25,-0.2 0,-0.05 q 0.1,-0.2 -0.1,-0.35 l -0.4,-0.05 -0.2,0.35 m 1.3,0.85 q 0.35,0.6 1,1.05 l 0.25,0.2 0.7,0.35 0.45,0.15 -0.05,0.4 0.35,1.5 q 0.2,0.85 0.75,1.25 0.6,0.45 1.05,0 0.4,-0.4 0.25,-1.1 l -0.5,-1.15 0.05,-0.85 q 0.1,-0.6 -0.1,-0.9 -0.55,-0.75 -1.55,-0.95 l -1.05,-0.5 -1.1,-0.3 -0.5,0.3 q -0.2,0.25 0,0.55 m -0.2,1.25 0,0.05 0.4,0.05 0.2,-0.3 -0.2,-0.3 -0.4,0.05 q -0.25,0.25 0,0.45 m -0.2,3.15 q -0.15,-0.55 -0.65,-0.85 l -1,-0.05 -0.35,0.75 0.35,0.5 0.1,0.05 0,0.1 q 0.2,0.65 0.95,0.45 0.8,-0.2 0.6,-0.95 m -2.55,-1.8 q 0,-0.55 -0.55,-0.55 -0.5,0 -0.5,0.55 0,0.5 0.5,0.5 0.55,0 0.55,-0.5"
       id="path5"
       style="fill:#e5ded1;fill-opacity:1;stroke:none" />
    <path
       d="M 16.95,-64.4"
       id="path7"
       style="fill:none;stroke:none" />
    <path
       d="m 5.8,-49.15 m 0,0 q -1.1,-1.5 -0.65,-3.7 -1.5,4.4 1.7,5.5 l 1.85,0.1 -1,0.65 -0.4,0.75 Q 6.9,-46.35 6.25,-46.2 5.1,-46.1 5,-44.35 4.3,-45.3 3.4,-45.45 2.35,-45.6 1.55,-44.6 0.8,-45.95 -0.65,-45.9 l -0.85,0.2 q -0.35,-1.05 -1.25,-1.45 l 1,-1.5 0.05,-0.75 q 0.55,-0.15 1.2,-0.6 1.2,-0.8 1.55,-2.7 0.3,-1.55 -0.05,-3.2 -0.35,-1.9 -1,-3.2 l -0.05,0 q 1.1,2.15 1,4.65 -0.05,2.6 -1.4,3.75 -1.35,0.55 -2.55,0.4 -0.85,-0.1 -1.6,-0.6 -1.75,-1 -2.7,-3.25 -0.95,-2.2 -0.55,-4.25 0.45,-2.25 2.4,-3.1 l 0.55,-0.2 q -0.7,-3.5 1.2,-5.95 1.1,-1.55 2.5,-2.6 -5.25,2.3 -8.1,6.5 l 0.4,0.5 q 0,0.5 -0.55,0.75 l -0.5,-0.1 q -2.1,4.05 -0.15,7.5 0.8,-1.9 0.4,-2.95 0.7,1.3 0.15,4.65 -0.5,2.9 0.4,3.3 l 1.9,0.5 1.9,0.45 q 0.8,0.35 1.45,1.25 l 0.15,-0.65 0.1,-0.15 0.15,0.05 q 0.85,0.7 -0.05,2.15 0.85,0.15 1.45,0.65 0.65,0.6 0.5,1.4 -0.6,0.55 -0.55,1.5 0,0.95 0.6,1.55 l 0.45,0.1 q 1.4,0.75 1.75,-0.6 l 0.1,-0.55 0.15,-1.35 q -0.2,-0.8 -1.1,-1 1.1,-0.2 1.5,0.5 l 0.25,0.55 q 0.65,-0.85 1.6,-1.05 0.95,-0.15 1.6,0.5 0.6,0.55 0.8,1.55 0.15,-1.3 0.75,-1.65 l 0.9,-0.1 q 0.55,0.05 0.75,0.4 -0.85,-0.55 -1.75,0.15 -0.5,0.4 -0.5,1.15 l -0.05,0.15 0.05,0.05 q 0.15,0.8 0.8,1.55 l 0.65,0.65 q 1,0.55 1.6,0.35 1.1,-0.35 0.4,-1.8 -0.25,-1.35 -0.9,-2 L 8.1,-44.5 8,-44.7 q -0.25,-1.55 1.6,-2 l 0.1,-0.15 0.55,0 -0.75,-0.35 -0.55,-0.1 q 1.4,-0.35 2.85,-1.6 1.25,-1.05 2,-2.35 1.5,-2.55 0.9,-5.5 -0.15,-0.85 -0.95,-1.55 l -1.5,-1.05 -0.6,0.1 q 0.8,0.2 1.45,0.7 1.7,1.3 1.65,3.55 -0.05,2.1 -1.45,4.05 -1.4,1.85 -3.25,2.5 l -0.1,0.05 -1.4,0.25 q -1.4,0 -2.75,-1 m 14.25,-5.9 0.5,-2.1 q -1.7,-0.65 -3.05,1.65 -0.75,1.35 -1.05,2.85 l 0.2,-0.3 q -0.45,0.8 -0.4,2.1 l 0.2,1.95 q 2.85,-3.95 3.6,-6.15 m 1.35,2.6 0.4,-0.3 q 0.6,-0.75 0.7,-2 l -0.3,-1.5 q -0.25,1.3 -0.9,2.75 l 0.1,1.05 m -0.15,1.15 q -0.4,0.1 -0.35,0.55 l 0,0.15 0.05,1.25 0.15,0.8 0.25,1.05 q 0.4,1.15 0.95,1.45 l 0.05,0.1 0.05,-0.05 0.5,0.05 q 0.55,-0.1 0.75,-0.8 l 0,-1.2 -0.1,-0.4 q -0.4,-1.65 -1.7,-2.65 -0.15,-0.4 -0.6,-0.3 m 6.75,-1.1 0.15,-0.05 2,-0.8 q 1.05,-0.6 1.5,-1.5 l 0.3,-1.15 q 0.05,-0.5 -0.35,-0.5 -0.3,-0.05 -0.65,0.25 l -1.4,2.05 q -0.85,1.45 -1.75,1.6 l 0.2,0.1 m -0.85,4.05 q 1.05,-2.35 0.35,-3.25 -0.3,-0.4 -1,1.1 l -0.7,1.85 -0.3,1.25 -0.4,1.2 0.1,0.05 q 1.1,-0.45 1.95,-2.2 m 10.95,3.75 -1.45,0.6 0.75,0.5 q 0.5,0.05 1.1,-0.35 0.4,-0.25 0.4,-0.55 l -0.3,-0.25 -0.5,0.05 m -6,-1.15 q 0.15,-0.65 -0.2,-0.8 l -1.25,-0.1 -1.45,1.6 q -0.9,0.55 -1.25,0.6 l 0.4,0.6 0.5,-0.05 1.1,0.1 q 0.95,-0.15 1.7,-1.15 l 0.45,-0.8 m -0.4,3.05 q 2.8,0.15 3.35,-1.05 0.35,-0.7 -1,-0.5 l -2.2,0.45 -1.3,0.8 1.15,0.3 m -3.6,-2.8 q 1.6,-0.75 1.9,-1.95 0.15,-0.7 -0.65,-0.9 l -0.65,0.15 -0.65,0.25 -0.05,0 -0.95,1.6 0.3,0.4 0.05,0.55 0.7,-0.1 m -1.55,0.25 0.35,-0.5 0,-0.05 -0.3,-0.4 q -0.4,-0.1 -0.6,0.2 -0.25,0.3 -0.05,0.55 L 26,-45.4 q 0.2,0.25 0.55,0.15 m -1.3,4.7 q 0,-1.1 -0.85,-1.5 -0.45,-0.2 -0.9,0 l -0.35,0.3 -0.25,0.55 0,1.25 q -0.25,0.85 -0.9,1.45 -1.1,1.05 -3.25,2.45 -2.35,1.65 -1.3,2.65 l 0.75,0.65 1.6,-1.85 q 0.25,0.1 0.45,-0.2 l 1.45,-1.35 1.7,-1.1 q 1.25,-0.9 0.95,-2.1 0.65,-0.2 0.8,-0.7 l 0.1,-0.5 m -1.3,-4.35 q -0.55,0.6 -0.55,1.85 0.75,0.05 1.55,0.6 l 1.2,1.25 0.45,0 q 0.5,-0.1 0.85,-1 0.45,-0.95 -1.1,-2.2 -1.7,-1.25 -2.4,-0.5 m 0.05,11 q 0.65,-1.5 0.4,-2.4 l -0.05,-0.05 -0.2,0.1 -0.15,1.2 q -0.3,1.15 -1.1,2.35 -1.35,2.1 -4.25,1.55 l -0.05,0.25 -0.15,0.2 2.3,0.15 q 1.25,-0.4 2.1,-1.35 l 1.15,-2 m -13.5,-2.8 0.35,-1 Q 11,-38.3 10.4,-38.6 l -1.35,0.15 -0.6,0.7 -0.25,0.9 -0.05,0.1 -0.05,0.05 -0.25,0.5 q 0.5,0.6 0.3,1.55 l -0.1,0.55 1.65,0.1 q -0.15,-0.35 0.15,-0.8 l 0.9,-0.75 Q 10.4,-36.1 10.5,-36.7 m -0.55,-5.95 0.55,-0.55 q 0.25,-0.6 0.15,-1.3 -0.05,-0.85 -0.7,-1.45 -0.55,-0.5 -0.95,-0.3 -0.9,0.55 -0.7,1.75 0.25,1.2 1.65,1.85 m -4.9,-0.3 q -0.25,-1.1 -1.1,-1.4 -1,-0.35 -1.65,0.5 -0.55,0.8 -0.4,1.85 l 0.05,0.4 q 0.35,1.15 1.4,1.3 0.4,0.05 0.75,-0.2 l 0.55,-0.4 0.55,-0.25 0.05,0 -0.15,-0.75 0,-0.55 0.15,-0.15 -0.05,-0.05 -0.15,-0.3 M 1.3,-35.9 q 0.45,-0.7 0.25,-1.4 l -1.1,0.05 q -0.7,-0.15 -1.3,-0.65 -0.45,0.3 -0.45,1.35 0.05,0.5 0.55,0.9 0.45,0.3 0.9,0.35 0.7,0.1 1.15,-0.6 m -0.85,-2 1.15,-0.1 q 0.55,-0.25 0.8,-0.6 l 0.1,-0.9 q -1,-0.5 -1.4,-1.4 -0.45,0.8 -1.2,0.8 l -0.45,0.9 q -0.05,0.35 0.25,0.75 0.3,0.45 0.75,0.55 m 3.05,1.65 0.35,0.4 q 1.4,-1.4 1.8,-2.85 0.15,-0.5 0.7,-0.45 0.55,0.05 0.55,0.6 0.05,1.7 -1.95,3 l -0.85,0.5 0,0.5 q 1.4,-0.6 2.1,-1.35 l 1,-1.45 q 0.4,-1.05 0.1,-1.75 -1.15,-0.5 -1.7,-1.45 -0.1,0.5 -0.75,0.95 0.25,0.5 0.05,1.2 -0.3,1.05 -1.15,1.9 l -0.25,0.25 m 3.75,1.15 0,-0.2 -0.95,0.95 0.4,0.7 q 0.55,-0.8 0.55,-1.45 m -1,2 0.2,-0.2 0,-0.4 -0.2,-0.6 q -1.05,0.75 -2.4,1.1 L 2.7,-33 1.85,-32.1 q -0.85,0.85 -0.55,1 l 1.8,0.05 q 2.1,-0.8 3.15,-2.05 m -0.6,2.95 1.05,-1.75 0.05,-0.35 q -2.15,2.05 -4.6,2.2 l -0.1,0 -0.55,0.55 q -0.9,0.7 -0.1,1.05 0.7,0.3 1.55,0 1.65,-0.5 2.7,-1.7 m -1.85,-4.6 0.05,-0.2 -0.3,0.15 -0.85,0.05 -0.05,-0.1 1.05,-0.85 -0.3,-0.45 -1.25,1.1 q -0.8,0.8 -0.15,0.9 l 1.3,-0.15 0.5,-0.15 0,-0.3 m -3,0.75 -0.05,-0.25 0.05,-0.4 q -1.05,0.25 -1.95,-0.4 0.15,0.75 -0.25,1.35 -0.25,0.4 -0.65,0.55 l 0.5,0.6 q 0.6,0.45 1.3,0 0.95,-0.65 1.1,-1.35 L 0.8,-34 m 2,2.6 q -0.5,0.2 -0.8,0 -0.15,-0.15 0.05,-0.4 l 0.6,-0.25 0.8,-0.45 q 1.05,-0.7 1.4,-0.65 l 0.05,0.1 q -0.05,0.4 -0.5,0.75 l -0.8,0.5 -0.8,0.4 m -0.25,2.05 0.8,-0.4 L 4,-30.2 q 0.4,-0.3 0.65,-0.3 l 0.1,0.15 q 0.05,0.6 -1.25,1.1 -1.15,0.6 -1.55,0.25 -0.15,0 0,-0.15 l 0.6,-0.2 m 0.8,2.55 q -0.5,0.4 -1.35,0.65 l -1.35,0.5 q 0.65,0.5 -0.05,1.6 0.6,0.4 0.35,1.15 -0.3,1.2 -1.75,1.55 l -1.3,-0.15 -1.05,-0.8 -0.4,-1.2 q -0.05,-0.75 0.4,-1.15 -1.05,-1 -3.35,-1.9 -2.2,-0.9 -3.35,-1.05 l -1.25,0.2 0.55,1.95 0.2,0.65 q 0.05,0.25 -0.05,0.45 l 0.3,0.2 1.1,0.15 1.8,1.25 q 0.35,0.3 1,2.5 0.95,1.85 2.95,0.75 1.3,-0.7 2.6,-0.75 l 2.75,0.4 q 0.45,0.1 0.5,-0.65 l 0.05,-1.25 0.45,-0.7 0.05,-0.4 0.4,-1.15 0.55,-0.95 q 0.05,-0.4 -0.8,-0.5 l -0.15,-0.1 0.2,-1.25 m 0.9,0.45 0,-0.25 0,-0.05 0.3,-0.05 0,-0.05 Q 4.4,-27.1 4.8,-27.35 l 0.85,-0.45 0.15,0 0,0.1 -0.6,0.65 -0.2,0.3 -0.3,0.1 -0.05,0 -0.1,0.3 -0.05,0 -0.25,0 m 1.1,-1.95 -1.65,1.25 -0.2,0.55 q -0.2,0.75 0.25,0.9 l 0.75,0.5 -0.55,0.95 -0.75,1.55 0.4,-0.4 q 0.4,-0.4 2.2,-1.3 1.4,-0.7 1.85,-1.65 0.65,-1.2 0.45,-1.8 -0.3,-0.85 -1.2,-0.95 -0.85,-0.05 -1.55,0.4 m 12.1,-2.95 q -0.1,-0.9 -0.85,-1.35 l -1.35,0.1 -0.4,-0.05 q -1,-0.35 -3.25,-2.1 l -0.75,-0.75 -0.5,0.6 -0.35,0.95 0.3,0.2 2.35,1.8 1.15,0.95 0.55,1.1 0.05,0 0.05,-0.15 q 0.1,-0.2 0.4,-0.25 l 0.7,-0.5 0.05,0 -0.55,0.85 -0.35,0.2 -0.3,0.1 -0.1,0.35 q -0.1,1.15 0.75,1.5 0.9,0.3 1.35,-0.45 0.4,-0.65 0.25,-1.5 -0.55,0.15 -0.7,-0.45 l 0.1,-0.05 q 0.4,0.5 1.05,0.15 0.35,-0.35 0.35,-1 l 0,-0.25 m -2.4,16.8 q 0.35,-0.6 -0.05,-1.25 -0.55,-1 -1.7,-0.85 -1.05,-0.4 -2.4,-1.9 -1.4,-1.6 -2.4,-2 l -0.3,-0.2 q 0.65,-0.95 0.4,-2 -0.25,-1.2 -1.45,-1.15 l -0.85,0.25 -2.05,1.25 q -0.7,0.45 -0.7,1.5 l -0.15,1.5 -0.1,0.15 0.65,0.2 0.6,0.15 0.45,-0.3 0.05,-0.05 q 0.75,-0.5 1.85,0 2.15,0.8 3.7,3.8 l -0.15,1.3 q 0,1.35 1.45,1.85 1.35,0.5 1.85,-1.2 L 14,-13.7 q 0.7,-0.25 1.05,-0.75 m -1.6,-1.15 0.5,-0.15 0.45,0.2 0.1,0.5 q -0.15,0.65 -0.6,0.8 l -0.15,0 -0.1,0.05 -0.1,0.1 -0.45,0.6 -0.5,0.4 q -0.4,0 -0.5,-0.4 -0.1,-0.35 0.25,-0.9 l 0.3,-0.4 -1.7,-2.05 -1.7,-1.8 -1.85,-1.7 0.05,-0.05 q 2.4,1.25 3.55,2.65 l 1.1,1.65 0.65,0.75 0.3,-0.2 0.4,-0.05 m 1.3,5 q 1.25,-1.1 0.5,-2.55 l -0.65,0.65 -0.5,0.8 q -1,1.2 -2.1,0.8 l -0.3,-0.1 -0.2,-0.1 -0.05,0.05 -0.05,-0.05 q -0.6,0 -0.6,0.65 0.1,0.8 0.45,1.45 -0.6,0.6 -1.3,2.5 l -0.5,1.3 Q 9.2,-4.45 9.3,-3.9 l 0.1,0.3 1.45,0.05 0.3,-0.05 0.1,0 0.85,-2.55 0.65,-1.3 1.55,-2.6 0.45,-0.55 M 5.3,-21.75 q 0,-0.55 0.45,-0.75 0.25,-0.6 1,-0.5 1,0.15 1,1.1 0,0.55 -0.55,0.85 -0.45,0.3 -1.05,0.25 l -0.6,-0.25 0,0.2 q 0,0.65 -0.65,0.65 -0.65,0 -0.65,-0.65 0,-0.7 0.65,-0.7 l 0.45,0.15 -0.05,-0.35 m -6.35,-0.3 q 1.15,-0.2 1.4,-0.95 l -0.1,-0.65 q -0.5,0.35 -1,0.35 -1,0.1 -1.8,-0.65 -0.2,0.85 0.1,1.25 0.5,0.75 1.4,0.65 M 9.8,-2.1 q -0.05,0.5 0.55,1.1 l 1.3,0.95 q 1.65,1.1 2.25,1.3 1.25,0.4 2.4,-0.55 1.05,-0.85 -0.05,-1.75 L 14.2,-2.1 Q 12.4,-2.85 11.25,-2.8 10.7,-2.1 9.8,-2.1 m 9.2,2 -0.2,0.05 -0.3,-0.15 -0.1,0.5 0,0.5 0.5,0.45 Q 19.4,1.7 20,1.6 l 0.1,0 0.35,-0.1 0.2,-0.2 Q 20.9,1 20.6,0.7 19.8,-0.1 19,-0.1 M 17.8,3.65 Q 17.8,2.7 17,2.2 16.3,1.95 16.2,2.65 16.15,3.25 16.7,3.8 l 0.1,0.05 0.05,0.1 0.05,0.05 0.15,0.1 0.5,0 0.25,-0.45 m -48.25,-69 0.15,1.2 q 0.35,0.95 1.3,1.65 0.4,0.3 1.85,1.05 l 0.15,0.1 0.2,-0.05 q -0.85,-0.3 -1.5,-1.85 l -1.1,-2.25 -0.65,-0.3 q -0.35,-0.05 -0.4,0.45 m 10.9,0.6 q -0.65,-0.65 -0.75,-0.4 l -0.35,0.65 -0.6,1.55 q 0,1.35 0.45,2.05 l 0.35,0.35 0.75,-2.35 q 0.6,-1.45 0.15,-1.85 m -9.6,10.5 q -0.9,-0.8 -1.25,-1.8 l -1.2,0 q -0.4,0.1 -0.3,0.75 l 0.3,0.85 q 0.65,1.1 1.55,1.35 l 1.1,0.05 0.45,0.1 0.5,-0.5 -1.15,-0.8 m -9.35,0 q 0.45,0.45 1,0.45 0.25,0.05 0.8,-0.4 l -1.35,-0.75 -0.5,-0.1 -0.3,0.15 0.35,0.65 m 6.55,0.9 -2.1,-0.75 q -1.3,-0.35 -1.05,0.4 0.4,1.3 3.2,1.45 l 1.15,-0.15 -1.2,-0.95 m 11.5,-6 q -0.45,-0.2 -0.6,0.2 l -0.05,0 q -1.35,0.8 -2,2.4 l -0.2,0.4 -0.1,1.15 q 0.1,0.75 0.6,0.9 l 0.5,0 0.05,0.05 0.05,-0.05 q 0.65,-0.25 1.2,-1.35 l 0.6,-1.75 0.2,-1.2 0.05,-0.2 q 0.1,-0.4 -0.3,-0.55 m -4.5,4.55 -0.2,-1.25 -0.15,-1.3 q -0.75,-3.7 -1.3,-3.15 -0.75,0.85 -0.05,3.25 0.55,1.85 1.65,2.45 l 0.05,0 m -3.25,-2.5 -0.65,-0.2 q -0.8,0 -0.75,0.75 0.1,1.35 1.6,2.2 0.65,0.35 0.65,0.2 l 0.15,-0.5 0.35,-0.35 -0.7,-1.75 -0.1,0 -0.55,-0.35 m 2.3,3.15 q 0.25,-0.25 0.05,-0.55 -0.15,-0.35 -0.55,-0.3 l -0.05,0 -0.35,0.35 q -0.05,0.4 0.3,0.55 l 0.55,-0.05 0.05,0 m -1.9,3 q 0.25,0.9 0.7,1.1 l 0.45,0.05 1.4,-1.1 1.6,-0.4 q 0.1,-1.3 -0.3,-1.9 -0.6,-0.8 -2.45,0.2 -1.7,0.95 -1.4,2.05 m 4.4,1.6 -0.2,-0.6 -0.3,-0.35 -0.9,-0.1 q -0.9,0.3 -1.05,1.35 l 0.05,0.5 q 0.15,0.55 0.7,0.8 -0.4,1.2 0.65,2.25 l 1.55,1.3 1.25,1.55 q 0.2,0.3 0.45,0.2 l 1.3,2.05 0.05,0 0.8,-0.5 q 1.25,-0.95 -0.95,-2.8 l -2.9,-2.85 q -0.55,-0.65 -0.7,-1.6 l 0.2,-1.2 m 17.65,4.3 1.5,-1.8 q -0.1,-0.5 -0.8,-0.95 l -0.3,0.05 -0.75,0.8 -0.25,1.1 0.6,0.8 m 1.55,3.05 q 0.75,-0.4 1.25,-1.2 l 0.05,-0.05 q 0.45,-0.55 0.55,-0.9 0.25,-0.65 -0.2,-1.2 -0.4,-0.5 -1.1,-0.5 -1.2,0.05 -1.75,1.5 L -5.65,-44 q -0.6,1 -0.25,1.45 l 0.1,0.15 0.05,-0.05 0,0.1 q 0.65,0.6 1.55,0.15 m -5.55,-0.95 0.3,-0.5 q -0.1,-0.85 -0.6,-1.35 -0.55,-0.55 -1.3,-0.3 -0.6,0.2 -0.55,0.8 l 0.2,1 q 0,0.6 -0.35,1.1 l 0.75,0.9 q 0.2,0.5 0,0.85 0.9,-0.3 1.6,0 -0.5,-1.5 -0.05,-2.5 m 3.35,2.35 q 0.55,1.65 1.5,2.7 -1.25,-1.5 -1.3,-2.9 l 0,-0.55 q -1.05,-0.8 -0.5,-2.2 -2.35,-0.2 -2.25,1.65 0.4,4 3.25,6.7 l 0.05,0.05 0.25,-0.8 -1.25,-1.7 q -1.8,-3.1 -0.65,-4.15 l 0.25,-0.05 0.4,0.55 0.25,0.7 m 1.45,5.1 -0.25,-0.25 -0.3,0.75 q 2.45,2.1 3.25,1.2 0.85,-0.9 -0.7,-2.25 l 0.8,1.05 q 0.15,0.5 -0.45,0.6 -1.05,0.1 -2.35,-1.1 m -3.35,0.55 q -1.55,-1.75 -1.7,-3.05 -0.05,-0.4 0.4,-0.45 l 0.55,0.35 q 0.75,1.95 3,3.75 0.75,0.65 1.35,0.95 l 0.5,0.35 q 0.2,0.35 -0.05,0.65 -0.3,0.3 -0.6,0.15 -1.6,-0.65 -3.45,-2.7 m -10.8,-2.6 1.05,0.05 0.05,0 q -0.25,0.6 -0.75,0.4 -0.3,0.8 0,1.5 0.35,0.8 1.3,0.6 0.9,-0.15 1,-1.35 l -0.05,-0.35 -0.35,-0.15 -0.25,-0.25 -0.45,-0.9 0.05,0 0.6,0.6 0.35,0.3 0,0.15 0.15,0.05 0.65,-1.05 1.25,-0.8 q 0.75,-0.35 2.55,-1.5 l 0.4,-0.15 -0.25,-1 -0.4,-0.6 -0.85,0.6 q -2.4,1.4 -3.55,1.65 l -0.35,0 q -0.6,-0.6 -1.35,-0.25 -0.85,0.3 -1,1.25 l -0.05,0.2 q -0.05,0.6 0.25,1 m 1.4,-0.2 -0.1,0.1 q -0.05,0.05 -0.1,-0.05 l 0.15,-0.15 0.05,0.1 m 8.4,-1.5 -1.1,0.55 q -0.45,0.35 -0.35,1.1 0.3,2.1 1.75,3.7 1.5,1.7 3.5,2.45 2.4,0.85 2.45,-1.45 -1.7,-0.5 -2.95,-1.6 l -1.3,-1.5 q -1.15,-1.45 -2,-3.25 m -0.85,5.6 -0.5,-0.7 q -1.05,0.8 0.45,3.05 0.7,1.05 2,1.8 1.15,0.55 2.7,0.7 l 1.25,-0.15 q 0.4,-0.3 0.2,-1.4 l -0.9,0 q -3.15,-0.65 -5.2,-3.3 m 0.65,1.95 -0.9,-1.1 0.05,-0.15 0.15,0 q 0.95,1.05 2.55,1.95 1,0.55 1.75,0.6 l 0.5,0.35 q 0.15,0.15 0,0.25 l -0.1,0.1 q -0.1,0.25 -0.5,0.25 -1.3,-0.3 -2.45,-1.35 l -1.05,-0.9 m -1.6,6.1 -0.2,-1.45 q -0.4,0.25 -0.6,0.85 -0.45,1.4 0.8,1.7 l 0.35,0.15 -0.35,-1.25 m 10.8,-5.8 q -0.9,0.35 -1.8,-0.25 l -0.05,0 q -0.85,0.45 -0.75,1.8 0,0.6 0.8,1 0.4,0.2 1.1,-0.15 l 0.85,-0.7 q 0.4,-0.75 -0.15,-1.7 m -9.25,5.5 -0.15,-0.25 0.2,-0.35 0.4,0.05 q 0.2,0.15 0.1,0.35 l 0,0.05 -0.25,0.2 -0.3,-0.05 m 2.15,1.65 q -0.65,-0.45 -1,-1.05 -0.2,-0.3 0,-0.55 l 0.5,-0.3 1.1,0.3 1.05,0.5 q 1,0.2 1.55,0.95 0.2,0.3 0.1,0.9 l -0.05,0.85 0.5,1.15 q 0.15,0.7 -0.25,1.1 -0.45,0.45 -1.05,0 -0.55,-0.4 -0.75,-1.25 l -0.35,-1.5 0.05,-0.4 -0.45,-0.15 -0.7,-0.35 -0.25,-0.2 m 7.35,-2.6 q 0.3,-0.85 -0.1,-1.6 -1.1,0.8 -2.05,0.4 l -0.55,-0.3 -0.05,1.05 0.2,0.75 q 0.45,0.6 1.4,0.6 0.85,-0.05 1.15,-0.9 m -0.75,1.95 q -1.15,0.2 -1.9,-0.5 l 0.15,0.3 1,1 1.4,-0.05 q 0.45,-0.55 0.2,-1.2 -0.4,0.4 -0.85,0.45 m -23.75,-16.05 q -0.65,-1.3 -0.75,-2.45 l 0,-1.25 -0.2,-0.1 -0.05,0.05 q -0.35,0.85 0.05,2.4 0.35,1.35 0.9,2.15 0.75,1 1.9,1.6 1.35,0.7 2.3,0.2 l -0.1,-0.25 0,-0.25 q -3,0.1 -4.05,-2.1 m 1.7,41.45 -0.1,-0.5 -0.25,0.15 -0.25,-0.05 q -0.85,0 -1.55,0.8 -0.3,0.3 -0.05,0.6 l 0.15,0.2 0.4,0.1 0.05,0 q 0.65,0.05 1.15,-0.35 l 0.45,-0.45 q 0.15,-0.25 0,-0.5 m 14.25,-24.5 0,-0.05 q -0.25,-0.2 0,-0.45 l 0.4,-0.05 0.2,0.3 -0.2,0.3 -0.4,-0.05 m -0.85,2.25 q 0.5,0.3 0.65,0.85 0.2,0.75 -0.6,0.95 -0.75,0.2 -0.95,-0.45 l 0,-0.1 -0.1,-0.05 -0.35,-0.5 0.35,-0.75 1,0.05 m 0.05,2.85 0.4,0.3 0.65,-0.15 q 0.9,-0.2 0.95,-0.65 l 0,-0.35 -0.7,-1.55 q -0.55,-1.15 -1.85,-1.6 l -1.65,-0.7 q -1.2,0 -1.45,1.15 -0.25,1.05 0.45,2 l -0.3,0.2 q -1,0.4 -2.4,2 -1.35,1.5 -2.4,1.9 -1.15,-0.15 -1.75,0.85 -0.35,0.65 0,1.25 l 1.05,0.75 0.25,0.3 q 0.15,0.7 0.6,1.05 l 1.2,0.15 q 1.5,-0.5 1.5,-1.85 l -0.15,-1.3 q 1.55,-3 3.65,-3.8 1.1,-0.45 1.9,0 l 0.05,0.05 m -2.5,-4.35 q 0.55,0 0.55,0.55 0,0.5 -0.55,0.5 -0.5,0 -0.5,-0.5 0,-0.55 0.5,-0.55 m -6.65,11.75 -0.45,-0.8 -0.65,-0.65 q -0.75,1.5 0.5,2.55 l 0.45,0.55 1.5,2.6 1.35,3.1 0.2,0.75 0.1,0 0.25,0.05 1.45,-0.05 0.15,-0.3 q 0.15,-0.55 -0.15,-1.3 l -0.55,-1.3 q -0.75,-2 -1.25,-2.5 0.4,-0.9 0.4,-1.45 0.1,-0.65 -0.55,-0.65 l -0.1,0.05 0,-0.05 -0.2,0.1 -0.35,0.1 q -1.05,0.35 -2.1,-0.8 m 4.3,9.6 q -0.9,0 -1.45,-0.7 -1.1,-0.05 -2.9,0.7 l -2,1.05 q -1.1,0.9 -0.1,1.75 1.1,0.95 2.4,0.55 0.5,-0.15 2.25,-1.3 l 1.3,-0.95 q 0.6,-0.7 0.5,-1.1 m -6.85,5.9 q 0.5,-0.5 0.45,-1.15 -0.05,-0.3 -0.25,-0.45 l -0.5,0 q -0.9,0.55 -0.8,1.45 l 0.25,0.45 0.5,0 0.1,-0.1 0.1,-0.05 0.05,-0.1 0.1,-0.05 m 27.25,-25.35 0.15,0.1 -0.05,-0.05 -0.1,-0.05"
       id="path9"
       style="fill:#ccc6ba;fill-opacity:1;stroke:none" />
    <path
       d="M 5.8,-49.15"
       id="path11"
       style="fill:none;stroke:none" />
    <path
       d="m 9.9,-48.4 m 0,0 -1.35,0.25 1.4,-0.25 -0.05,0 m 0.4,-9.9 q -2.35,0.3 -3.85,4.3 -0.5,1.35 -0.1,4.1 0.6,1.5 3.45,0.7 1.65,-0.4 3,-2.9 1.15,-2.1 0.7,-4.15 -0.5,-2.45 -3.2,-2.05 m -16.95,3.15 q 0.85,2.8 2.3,3.5 l 3.55,0.1 q 0.95,-2.6 0.8,-4 -0.6,-4.25 -2.8,-5.1 -2.55,-1 -3.6,1.25 -0.9,1.95 -0.25,4.25"
       id="path13"
       style="fill:#5e503b;fill-opacity:1;stroke:none" />
    <path
       d="M 9.9,-48.4"
       id="path15"
       style="fill:none;stroke:none" />
    <path
       d="m -0.2,-70.65 m 0,0 -1,0.4 q -1.4,1.05 -2.5,2.6 -1.9,2.45 -1.2,5.95 l 0.95,-0.2 q -0.55,-1.3 -0.25,-2.6 l 1.1,-2.55 q 1.45,-2.3 4.65,-4.2 l -1.75,0.6"
       id="path17"
       style="fill:#bab4aa;fill-opacity:1;stroke:none" />
    <path
       d="M -0.2,-70.65"
       id="path19"
       style="fill:none;stroke:none" />
    <path
       d="m -0.65,-60.1 m 0,0 q -1.5,-1.9 -3.3,-1.8 l -0.95,0.2 -0.55,0.2 q -1.95,0.85 -2.4,3.1 -0.4,2.05 0.55,4.25 0.95,2.25 2.7,3.25 0.75,0.5 1.6,0.6 1.2,0.15 2.55,-0.4 1.35,-1.15 1.4,-3.75 0.1,-2.5 -1,-4.65 l 0.05,0 0.35,-0.3 q 0.15,-0.3 -0.1,-0.5 l -0.2,-0.2 -0.45,-0.1 -0.25,0.1 m 14.25,53.6 0.8,-1.7 q 1.95,-2.5 2.45,-4 0.3,-0.8 -0.25,-1.7 0.65,-0.9 0.35,-2.05 -0.35,-1.2 -1.5,-1.4 -1.35,-0.3 -2.4,-0.95 L 11.1,-19.95 9.6,-21.3 Q 10.75,-24 8.45,-24.75 L 8.2,-24.8 q 1,-1 1.2,-2.2 0.2,-1.2 -0.6,-2 -0.65,-0.7 -1.6,-0.85 L 7,-29.9 l -0.1,0 q 1.5,-2.15 0.5,-3.1 l 0.25,-0.35 0.3,0.1 q 1,-0.2 2,0.4 l 1.65,1.3 q 0.95,0.65 1.3,1.4 l 0.55,1.8 q 0.2,0.85 0.75,1.4 0.6,0.65 1.45,0.6 2.2,-0.3 1.95,-2.6 0,-0.5 0.45,-1.15 2.7,1.4 5.1,-0.6 1.3,-1 1.95,-2.9 0.7,-1.95 0.35,-3.75 l -0.05,-1.4 q 1,-0.4 1.1,-1.3 l 1.2,-0.7 q 0.6,-0.55 0.8,-1 l 0.15,-1.2 0.9,0.1 q 0.1,0.65 0.55,0.85 1.3,0.6 3.15,0.35 2.1,-0.3 2.7,-1.5 l 0.55,0.4 2.3,-0.15 q 1.25,-0.8 1.15,-1.65 l -0.65,-0.95 -1.15,-0.15 -1.05,0.55 -1,0.65 q -0.35,-0.95 -1.5,-0.95 l -1.9,0.4 0.15,-0.5 q 0.4,-1.4 -0.65,-1.8 l -1.35,0.2 0.05,-0.15 q 0.15,-0.7 -0.2,-1.25 -0.4,-0.6 -1.15,-0.65 l -1.25,0.3 q 0.55,-1.7 0.25,-2.75 1.15,-0.05 2.3,-0.8 1.15,-0.75 1.7,-1.8 l 0.5,-1.55 q 0.1,-1 -0.5,-1.45 -0.75,-0.5 -1.6,-0.2 l -1.25,1.05 -1.1,1.8 -1.35,1.6 -0.05,0.35 q -0.85,0.15 -1.65,1.65 -0.65,1.35 -0.95,3 -0.25,-1.15 -0.9,-2.25 l -1.4,-1.65 0.8,-1.35 0.35,-1.15 q 0.15,-0.85 -0.1,-1.95 -0.3,-1.25 -0.9,-1.75 l -0.2,-0.1 -0.65,-2.2 Q 20,-63.7 15.95,-67.6 l -3.6,-3.55 q -2.4,-2.15 -4.25,-2.5 -2.7,-0.55 -7.05,1.05 -4.4,1.6 -7.95,4.45 -9.15,7.25 -3.75,13.75 l -0.55,2.65 q -0.1,1.5 0.6,2.3 0.4,0.55 2.5,0.75 l 2.2,0.4 q -0.9,0.75 -1.15,1.75 -0.3,1.15 0.65,1.75 l 0.25,0.05 -0.15,0.15 -2,0.15 -0.4,0.2 q -0.05,-1.7 -1.65,-2.2 -1.65,-0.5 -2.7,0.95 -0.25,0.35 0,1.3 0.2,0.95 -0.75,1.7 -0.3,0.2 -1.75,0.9 l -2.15,0.3 0.15,-0.3 q 0.2,-0.6 -0.3,-1.4 l -0.95,-1.15 -2.5,-2.4 q -1.3,-1.4 -1.2,-3.2 0.05,-1.1 -0.55,-1.55 0.55,-0.95 0.25,-1.95 l 0.35,0.05 q 1.15,-0.15 2.1,-1.85 0.75,-1.3 1.1,-2.8 0.2,-1.1 -0.25,-1.8 l 0,-0.05 0.45,-2.05 0.8,-2.4 q 0.2,-0.8 -0.75,-1.65 -1,-0.85 -1.75,-0.4 -0.65,0.4 -1.1,1.6 -0.4,1.05 -0.4,1.9 l 0.2,1.2 0.65,1.45 -1.65,1.45 -1.15,2.1 q -0.1,-1.7 -0.55,-3.1 -0.55,-1.6 -1.4,-1.85 l -0.05,-0.35 -1.1,-1.75 -0.85,-1.9 -1.1,-1.25 q -0.8,-0.45 -1.6,0 -0.65,0.35 -0.65,1.35 -0.05,0.8 0.25,1.65 0.4,1.05 1.45,1.95 1.05,0.9 2.15,1.1 -0.45,1 -0.1,2.8 -0.6,-0.5 -1.2,-0.5 -0.7,-0.05 -1.2,0.5 -0.45,0.5 -0.4,1.2 l 0.05,0.15 q -0.75,-0.45 -1.35,-0.35 -1,0.25 -0.9,1.7 l 0.15,0.55 q -0.95,-0.5 -1.85,-0.7 -1.2,-0.15 -1.6,0.75 -1.15,-1.1 -1.85,-1.45 -0.55,-0.25 -1.2,0 -0.6,0.25 -0.75,0.85 -0.25,0.95 0.9,1.75 1.15,0.85 2.25,0.5 l 0.6,-0.35 q 0.4,1.3 2.45,1.9 1.85,0.5 3.2,0.05 0.55,-0.2 0.7,-0.8 l 0.85,0 0.05,1.25 0.65,1.1 q 0.55,0.7 1.1,0.85 -0.1,0.8 0.85,1.45 -0.35,0.85 -0.2,1.35 -0.6,1.75 -0.15,3.75 0.4,1.95 1.55,3.15 2.15,2.25 4.95,1.25 0.4,0.8 0.3,1.2 -0.5,2.3 1.6,2.8 0.85,0.25 1.55,-0.35 0.6,-0.45 0.9,-1.3 l 0.75,-1.7 1.5,-1.25 1.85,-1 0.8,-0.25 -0.1,0.05 q -0.65,0.4 -0.9,1.2 -0.45,1.45 0.6,3.2 -1.4,1.15 -0.4,3.25 1.15,2.2 2.9,3.2 2.35,1.3 3.85,1.05 0.95,-0.15 1.4,-1.05 l 0.15,0.2 q -0.6,1.05 0.1,2 l -0.35,0.1 -0.1,0.75 q -1.45,-0.95 -2.95,-1.55 l -2.3,-0.95 -1.75,-0.4 q -1.2,0.3 -2.1,1.85 -0.9,1.6 -0.25,2.15 l 0.05,0.05 q -2.1,0.8 -1,3.4 l -1.5,1.35 -1.95,1.65 q -1.05,0.7 -2.4,0.95 -1.15,0.2 -1.45,1.4 -0.35,1.15 0.3,2.05 -0.55,0.9 -0.25,1.7 0.25,0.9 1.1,2.05 l 1.35,1.95 0.8,1.65 0.25,0.6 1.1,2.2 q -1.45,0.1 -4.65,1.8 l -0.95,0.8 q -0.5,0.5 -0.65,0.45 l -1.75,0.15 -1.15,0.75 q -0.5,0.55 -0.25,1.2 0.3,0.6 0.95,0.8 1.35,0.4 2.65,-0.65 l 0.45,-0.5 0.45,0.5 q -0.45,0 -1.1,0.55 -0.55,0.5 -0.6,1.15 -0.1,0.7 0.3,1.2 0.4,0.55 1.2,0.35 0.75,-0.15 1.1,-0.7 0.65,-0.75 0.7,-1.5 1.2,0.35 2.75,-0.45 l 2.45,-1.65 q 0.85,-0.6 1.35,-1.4 0.6,-0.95 0.3,-1.65 0.8,-0.75 0.45,-2.3 l -1.15,-2.65 -0.05,-0.1 q -0.7,-1.55 -0.65,-2.65 0,-0.9 -0.45,-1.45 1.75,-1.5 0.8,-3 0.9,-1.75 3.2,-3.2 l 1.05,0.2 1.6,0.4 q 1.3,0 1.65,-1.25 0.7,0.95 1.65,0.9 1.2,-0.1 1.7,-0.35 2.35,-1.3 5.35,-0.65 l 0.25,0.05 q 0.3,1.3 1.6,1.3 l 1.55,-0.4 1.05,-0.2 q 2.35,1.4 3.2,3.2 -0.9,1.5 0.8,3 -0.4,0.55 -0.4,1.45 0.05,1 -0.6,2.45 l -0.15,0.3 -1.1,2.65 q -0.35,1.6 0.4,2.3 -0.25,0.7 0.35,1.65 0.5,0.75 1.35,1.4 l 2.45,1.65 q 1.55,0.8 2.75,0.45 0.1,0.85 0.65,1.5 0.35,0.55 1.1,0.7 0.85,0.2 1.25,-0.35 0.4,-0.5 0.3,-1.2 Q 18.75,2.6 18.25,2.1 17.6,1.55 17.15,1.55 L 17.6,1.05 18,1.55 Q 19.35,2.6 20.65,2.2 21.35,2 21.6,1.4 21.9,0.75 21.4,0.2 L 20.25,-0.55 18.5,-0.7 q -0.2,0.05 -0.65,-0.45 l -0.95,-0.8 q -3.45,-1.7 -4.65,-1.8 l 1.1,-2.2 0.25,-0.55 m 6.8,-45.2 q -0.6,0.65 -0.5,1.75 0.1,1.5 0.7,2.9 0.7,1.8 1.85,2.1 l 0.3,-0.05 0.1,-0.3 0.1,0 q -0.7,1.2 -0.15,2.35 -0.65,0.35 -0.8,1.45 -0.1,1.8 -1.6,3 l -2.8,2.1 -1.05,1 q -0.65,0.75 -0.5,1.35 l 0.1,0.3 q -1.8,-0.35 -2.1,-0.55 l -1.65,-1.2 q -0.8,-0.8 -0.5,-1.75 0.4,-0.9 0.2,-1.25 -0.6,-1.2 -1.75,-1.3 0.75,-1 0.15,-2.15 0.8,0.05 1.1,-0.2 0.3,-0.3 0.3,-1.25 0,-1.5 -0.6,-2.2 l 2.1,-0.05 2.1,0.35 q 0.55,-0.15 0.75,-0.9 l 0.2,-1.55 0.15,-0.2 q 2.3,-1.7 3.75,-3.9 l 0,0.1 0.05,0.05 m 2.15,18.15 q -1.6,2.05 -3.75,1.6 l 2.95,-2.8 1.45,-1.1 q 0,1.5 -0.65,2.3 M 2.45,-37.7 2.9,-38.05 q 0.55,0.55 0.25,1.05 l -0.1,0.1 -0.7,0.65 -0.2,-1.3 0.3,-0.15 m -0.8,4.95 -1.15,1.2 -0.05,0.05 -0.3,-0.3 q 0.8,-0.5 1.2,-1.45 L 2,-33 1.65,-32.75 m -0.65,2.5 -0.35,0.3 0.1,-0.45 q 0.1,0.15 0.25,0.15 m -0.2,2.75 1.35,0.25 -0.05,0.1 -1.5,0.7 0.2,-1.05 m -23.65,-25.95 -0.1,-0.2 0.1,0 0,0.2 M -5,-36.7 l -0.4,0.55 -0.25,0.8 -0.05,-0.05 q -2.85,-2.7 -3.25,-6.7 -0.1,-1.85 2.25,-1.65 -0.55,1.4 0.5,2.2 l 0,0.55 q 0.05,1.4 1.3,2.9 l 1.6,1.55 -0.8,0.8 0.85,-0.75 0.15,0.1 0.15,0.15 q 1.55,1.35 0.7,2.25 -0.8,0.9 -3.25,-1.2 l 0.3,-0.75 0.3,-0.5 0.35,0.4 0.05,-0.05 -0.35,-0.55 q 0,-0.2 -0.15,-0.05 m 1.65,-3 2,0.8 0.2,0.6 -0.55,0.35 q -0.35,0.55 -0.25,1.5 l -1.35,-1.35 -1.35,-1.35 0.05,-0.45 1.25,-0.1 m -20.7,-2.25 q -0.5,-0.8 -0.4,-2.35 l 1.3,1.25 1.25,1.65 1.3,1.55 q -2.25,0.15 -3.45,-2.1 m 35.1,-28.1 5.9,5.65 -0.65,1.35 q -0.65,1.45 -1.8,1 -1,-0.05 -1.35,-0.4 l -0.3,0 -0.4,-1.4 -0.1,-0.05 -1,-3 -1.15,-3.75 0.85,0.6 m -9.5,-1.2 q 5,-1.5 8.4,0.45 l 1.05,3.4 1.35,3.55 0.4,1.55 -0.75,1.15 -1.2,1.75 q -2.95,0 -4.8,4 -0.65,1.35 -0.85,2.55 -0.45,2.2 0.65,3.7 1.35,1 2.75,1 l 1.35,-0.25 0.05,0 0.1,-0.05 q 1.85,-0.65 3.25,-2.5 1.4,-1.95 1.45,-4.05 0.05,-2.25 -1.65,-3.55 -0.65,-0.5 -1.45,-0.7 l -0.4,-0.1 q 0.65,-0.65 1.3,-1.95 l 0.8,-0.6 1.1,0.1 0.9,-0.05 0.75,-0.45 1.1,-1.8 1.95,2.35 q 1.55,2.1 1.4,4.6 l -0.5,2.1 q -0.75,2.2 -3.6,6.15 l -0.2,-1.95 q -0.05,-1.3 0.4,-2.1 l -0.2,0.3 -0.25,0.35 q -0.35,0.6 -0.45,1.7 l -0.15,1.85 q -0.1,1.35 -1,1.65 l -2.05,0.15 -2.3,0.1 -0.55,0 -0.1,0.15 q -1.85,0.45 -1.6,2 l 0.1,0.2 0.15,0.65 q 0.65,0.65 0.9,2 0.7,1.45 -0.4,1.8 -0.6,0.2 -1.6,-0.35 L 6.5,-41.05 Q 5.85,-41.8 5.7,-42.6 L 5.65,-42.65 5.7,-42.8 q 0,-0.75 0.5,-1.15 0.9,-0.7 1.75,-0.15 -0.2,-0.35 -0.75,-0.4 l -0.9,0.1 q -0.6,0.35 -0.75,1.65 -0.2,-1 -0.8,-1.55 -0.65,-0.65 -1.6,-0.5 -0.95,0.2 -1.6,1.05 L 1.3,-44.3 q -0.4,-0.7 -1.5,-0.5 0.9,0.2 1.1,1 l -0.15,1.35 -0.1,0.55 q -0.35,1.35 -1.75,0.6 l -0.45,-0.1 q -0.6,-0.6 -0.6,-1.55 -0.05,-0.95 0.55,-1.5 0.15,-0.8 -0.5,-1.4 -0.6,-0.5 -1.45,-0.65 0.9,-1.45 0.05,-2.15 l -0.15,-0.05 -0.1,0.15 -0.15,0.65 q -0.65,-0.9 -1.45,-1.25 l -1.9,-0.45 -1.9,-0.5 q -0.9,-0.4 -0.4,-3.3 0.55,-3.35 -0.15,-4.65 0.4,1.05 -0.4,2.95 -1.95,-3.45 0.15,-7.5 l 0.5,0.1 q 0.55,-0.25 0.55,-0.75 l -0.4,-0.5 q 2.85,-4.2 8.1,-6.5 l 1,-0.4 1.75,-0.6 m 1,20.45 q -0.9,0.8 -1.65,2 -0.2,0.4 0.2,0.65 0.4,0.2 0.65,-0.15 l 0.6,-0.65 0.2,1.05 q 0,0.7 0.3,1 l 0.25,0.05 0,-0.05 0.15,-0.15 0.1,-0.05 q 0.3,-0.45 0.1,-1.6 0.1,-1.3 -0.25,-2.05 l -0.25,-0.15 -0.4,0.1 m 3.9,-3.2 q 1.5,-4 3.85,-4.3 2.7,-0.4 3.2,2.05 0.45,2.05 -0.7,4.15 -1.35,2.5 -3,2.9 -2.85,0.8 -3.45,-0.7 -0.4,-2.75 0.1,-4.1 m 15.35,1.25 -0.4,0.3 -0.1,-1.05 q 0.65,-1.45 0.9,-2.75 l 0.3,1.5 q -0.1,1.25 -0.7,2 m -0.9,2 q -0.05,-0.45 0.35,-0.55 0.45,-0.1 0.6,0.3 1.3,1 1.7,2.65 l 0.1,0.4 0,1.2 q -0.2,0.7 -0.75,0.8 l -0.5,-0.05 -0.05,0.05 -0.05,-0.1 q -0.55,-0.3 -0.95,-1.45 l -0.25,-1.05 -0.15,-0.8 -0.05,-1.25 0,-0.15 m 7.25,-1.7 -0.15,0.05 -0.2,-0.1 q 0.9,-0.15 1.75,-1.6 l 1.4,-2.05 q 0.35,-0.3 0.65,-0.25 0.4,0 0.35,0.5 l -0.3,1.15 q -0.45,0.9 -1.5,1.5 l -2,0.8 m -0.65,0.85 q 0.7,0.9 -0.35,3.25 -0.85,1.75 -1.95,2.2 l -0.1,-0.05 0.4,-1.2 0.3,-1.25 0.7,-1.85 q 0.7,-1.5 1,-1.1 m 9.15,7.6 1.45,-0.6 0.5,-0.05 0.3,0.25 q 0,0.3 -0.4,0.55 -0.6,0.4 -1.1,0.35 L 36.65,-44 m -4.75,-2.55 q 0.35,0.15 0.2,0.8 l -0.45,0.8 q -0.75,1 -1.7,1.15 l -1.1,-0.1 -0.5,0.05 -0.4,-0.6 q 0.35,-0.05 1.25,-0.6 l 1.45,-1.6 1.25,0.1 m 3.15,2.8 q -0.55,1.2 -3.35,1.05 l -1.15,-0.3 1.3,-0.8 2.2,-0.45 q 1.35,-0.2 1,0.5 M 30,-47.45 q -0.3,1.2 -1.9,1.95 l -0.7,0.1 -0.05,-0.55 -0.3,-0.4 0.95,-1.6 0.05,0 0.65,-0.25 0.65,-0.15 q 0.8,0.2 0.65,0.9 m -3.1,1.7 -0.35,0.5 Q 26.2,-45.15 26,-45.4 l -0.05,-0.05 Q 25.75,-45.7 26,-46 q 0.2,-0.3 0.6,-0.2 l 0.3,0.4 0,0.05 m -2.5,3.7 q 0.85,0.4 0.85,1.5 l -0.1,0.5 q -0.15,0.5 -0.8,0.7 0.3,1.2 -0.95,2.1 l -1.7,1.1 -1.45,1.35 q -0.2,0.3 -0.45,0.2 l -1.6,1.85 -0.75,-0.65 q -1.05,-1 1.3,-2.65 2.15,-1.4 3.25,-2.45 0.65,-0.6 0.9,-1.45 l 0,-1.25 0.25,-0.55 0.35,-0.3 q 0.45,-0.2 0.9,0 m -1,-1 q 0,-1.25 0.55,-1.85 0.7,-0.75 2.4,0.5 1.55,1.25 1.1,2.2 -0.35,0.9 -0.85,1 l -0.45,0 -1.2,-1.25 q -0.8,-0.55 -1.55,-0.6 m 1,6.75 q 0.25,0.9 -0.4,2.4 l -1.15,2 q -0.85,0.95 -2.1,1.35 l -2.3,-0.15 0.15,-0.2 0.05,-0.25 q 2.9,0.55 4.25,-1.55 0.8,-1.2 1.1,-2.35 l 0.15,-1.2 0.2,-0.1 0.05,0.05 m -13.55,-1.4 -0.35,1 q -0.1,0.6 0.25,1.15 l -0.9,0.75 q -0.3,0.45 -0.15,0.8 l -1.65,-0.1 0.1,-0.55 q 0.2,-0.95 -0.3,-1.55 l 0.25,-0.5 0.05,-0.05 0.05,-0.1 0.25,-0.9 0.6,-0.7 1.35,-0.15 q 0.6,0.3 0.45,0.9 m -0.35,-5.5 -0.55,0.55 Q 8.55,-43.3 8.3,-44.5 8.1,-45.7 9,-46.25 q 0.4,-0.2 0.95,0.3 0.65,0.6 0.7,1.45 0.1,0.7 -0.15,1.3 m -6.55,-1.15 q 0.85,0.3 1.1,1.4 l 0.15,0.3 0.05,0.05 -0.15,0.15 0,0.55 0.15,0.75 -0.05,0 -0.55,0.25 -0.55,0.4 q -0.35,0.25 -0.75,0.2 -1.05,-0.15 -1.4,-1.3 L 1.9,-42 q -0.15,-1.05 0.4,-1.85 0.65,-0.85 1.65,-0.5 m -2.4,7.05 q 0.2,0.7 -0.25,1.4 -0.45,0.7 -1.15,0.6 -0.45,-0.05 -0.9,-0.35 -0.5,-0.4 -0.55,-0.9 0,-1.05 0.45,-1.35 0.6,0.5 1.3,0.65 l 1.1,-0.05 M 1.6,-38 0.45,-37.9 Q 0,-38 -0.3,-38.45 q -0.3,-0.4 -0.25,-0.75 l 0.45,-0.9 q 0.75,0 1.2,-0.8 0.4,0.9 1.4,1.4 l -0.1,0.9 q -0.25,0.35 -0.8,0.6 m 2.25,2.15 -0.35,-0.4 0.25,-0.25 q 0.85,-0.85 1.15,-1.9 0.2,-0.7 -0.05,-1.2 0.65,-0.45 0.75,-0.95 0.55,0.95 1.7,1.45 0.3,0.7 -0.1,1.75 l -1,1.45 q -0.7,0.75 -2.1,1.35 l 0,-0.5 -0.05,-0.2 -0.2,-0.6 m -0.6,-2.6 -0.05,-0.8 0.85,-0.05 q 0.2,0.7 -0.35,1.6 l -0.45,-0.75 m 4,3.15 0,0.2 q 0,0.65 -0.55,1.45 l -0.4,-0.7 0.95,-0.95 m -0.8,2 -0.2,0.2 Q 5.2,-31.85 3.1,-31.05 L 1.3,-31.1 q -0.3,-0.15 0.55,-1 L 2.7,-33 3.85,-33.2 q 1.35,-0.35 2.4,-1.1 l 0.2,0.6 0,0.4 m 0.25,1.4 -1.05,1.75 q -1.05,1.2 -2.7,1.7 -0.85,0.3 -1.55,0 -0.8,-0.35 0.1,-1.05 l 0.55,-0.55 0.1,0 q 2.45,-0.15 4.6,-2.2 L 6.7,-31.9 m -2.85,-3.05 -0.05,0.2 0,0.3 -0.5,0.15 -1.3,0.15 q -0.65,-0.1 0.15,-0.9 l 1.25,-1.1 0.3,0.45 0.1,0.35 0.05,0.4 m -3.1,0.7 0.05,0.25 0.05,0.1 q -0.15,0.7 -1.1,1.35 -0.7,0.45 -1.3,0 l -0.5,-0.6 q 0.4,-0.15 0.65,-0.55 0.4,-0.6 0.25,-1.35 0.9,0.65 1.95,0.4 l -0.05,0.4 m 1.25,8.1 q 0.85,-0.25 1.35,-0.65 l -0.2,1.25 0.15,0.1 q 0.85,0.1 0.8,0.5 l -0.55,0.95 -0.4,1.15 -0.05,0.4 -0.45,0.7 -0.05,1.25 q -0.05,0.75 -0.5,0.65 l -2.75,-0.4 q -1.3,0.05 -2.6,0.75 -2,1.1 -2.95,-0.75 -0.65,-2.2 -1,-2.5 L -9,-24 l -1.1,-0.15 -0.3,-0.2 q 0.1,-0.2 0.05,-0.45 l -0.2,-0.65 -0.55,-1.95 1.25,-0.2 q 1.15,0.15 3.35,1.05 2.3,0.9 3.35,1.9 -0.45,0.4 -0.4,1.15 l 0.4,1.2 1.05,0.8 1.3,0.15 q 1.45,-0.35 1.75,-1.55 0.25,-0.75 -0.35,-1.15 0.7,-1.1 0.05,-1.6 L 2,-26.15 m 1.7,-0.9 1.65,-1.25 q 0.7,-0.45 1.55,-0.4 0.9,0.1 1.2,0.95 0.2,0.6 -0.45,1.8 Q 7.2,-25 5.8,-24.3 4,-23.4 3.6,-23 l -0.4,0.4 0.75,-1.55 0.55,-0.95 -0.75,-0.5 Q 3.3,-25.75 3.5,-26.5 l 0.2,-0.55 m 12.9,-5.55 q 0.75,0.45 0.85,1.35 l 0,0.25 q 0,0.65 -0.35,1 -0.65,0.35 -1.05,-0.15 l -0.1,0.05 q 0.15,0.6 0.7,0.45 0.15,0.85 -0.25,1.5 -0.45,0.75 -1.35,0.45 -0.85,-0.35 -0.75,-1.5 l 0.1,-0.35 0.3,-0.1 0.35,-0.2 0.55,-0.85 -0.05,0 -0.7,0.5 q -0.3,0.05 -0.4,0.25 l -0.05,0.15 -0.05,0 -0.55,-1.1 -1.15,-0.95 -2.35,-1.8 -0.3,-0.2 0.35,-0.95 0.5,-0.6 0.75,0.75 q 2.25,1.75 3.25,2.1 l 0.4,0.05 1.35,-0.1 M 15,-15.7 q 0.4,0.65 0.05,1.25 -0.35,0.5 -1.05,0.75 l -0.25,0.3 q -0.5,1.7 -1.85,1.2 -1.45,-0.5 -1.45,-1.85 l 0.15,-1.3 q -1.55,-3 -3.7,-3.8 -1.1,-0.5 -1.85,0 L 5,-19.1 l -0.45,0.3 -0.6,-0.15 -0.65,-0.2 0.1,-0.15 0.15,-1.5 q 0,-1.05 0.7,-1.5 l 2.05,-1.25 0.85,-0.25 q 1.2,-0.05 1.45,1.15 0.25,1.05 -0.4,2 l 0.3,0.2 q 1,0.4 2.4,2 1.35,1.5 2.4,1.9 1.15,-0.15 1.7,0.85 m 0.25,2.55 q 0.75,1.45 -0.5,2.55 l -0.45,0.55 -1.55,2.6 -0.65,1.3 -0.85,2.55 -0.1,0 -0.3,0.05 L 9.4,-3.6 9.3,-3.9 Q 9.2,-4.45 9.45,-5.2 l 0.5,-1.3 q 0.7,-1.9 1.3,-2.5 -0.35,-0.65 -0.45,-1.45 0,-0.65 0.6,-0.65 l 0.05,0.05 0.05,-0.05 0.2,0.1 0.3,0.1 q 1.1,0.4 2.1,-0.8 l 0.5,-0.8 0.65,-0.65 M 0.35,-23 q -0.25,0.75 -1.4,0.95 -0.9,0.1 -1.4,-0.65 -0.3,-0.4 -0.1,-1.25 0.8,0.75 1.8,0.65 0.5,0 1,-0.35 l 0.1,0.65 m 10,22 q -0.6,-0.6 -0.55,-1.1 0.9,0 1.45,-0.7 1.15,-0.05 2.95,0.7 l 2.05,1.05 q 1.1,0.9 0.05,1.75 -1.15,0.95 -2.4,0.55 -0.6,-0.2 -2.25,-1.3 L 10.35,-1 M 18.8,-0.05 19,-0.1 q 0.8,0 1.6,0.8 0.3,0.3 0.05,0.6 L 20.45,1.5 20.1,1.6 20,1.6 Q 19.4,1.7 18.9,1.25 l -0.5,-0.45 0,-0.5 0.1,-0.5 0.3,0.15 M 17,2.2 q 0.8,0.5 0.8,1.45 L 17.55,4.1 17.05,4.1 16.9,4 16.85,3.95 16.8,3.85 16.7,3.8 Q 16.15,3.25 16.2,2.65 16.3,1.95 17,2.2 m -47.3,-66.35 -0.15,-1.2 q 0.05,-0.5 0.4,-0.45 l 0.65,0.3 1.1,2.25 q 0.65,1.55 1.5,1.85 l -0.2,0.05 -0.15,-0.1 q -1.45,-0.75 -1.85,-1.05 -0.95,-0.7 -1.3,-1.65 m 10,-1 q 0.1,-0.25 0.75,0.4 0.45,0.4 -0.15,1.85 l -0.75,2.35 -0.35,-0.35 q -0.45,-0.7 -0.45,-2.05 l 0.6,-1.55 0.35,-0.65 m -10.1,9.1 q 0.35,1 1.25,1.8 l 1.15,0.8 -0.5,0.5 -0.45,-0.1 -1.1,-0.05 q -0.9,-0.25 -1.55,-1.35 l -0.3,-0.85 q -0.1,-0.65 0.3,-0.75 l 1.2,0 m -7.1,2.25 q -0.55,0 -1,-0.45 l -0.35,-0.65 0.3,-0.15 0.5,0.1 1.35,0.75 q -0.55,0.45 -0.8,0.4 m 3.45,-0.3 2.1,0.75 1.2,0.95 -1.15,0.15 q -2.8,-0.15 -3.2,-1.45 -0.25,-0.75 1.05,-0.4 m 13,-5.05 q 0.15,-0.4 0.6,-0.2 0.4,0.15 0.3,0.55 l -0.05,0.2 -0.2,1.2 -0.6,1.75 q -0.55,1.1 -1.2,1.35 l -0.05,0.05 -0.05,-0.05 -0.5,0 q -0.5,-0.15 -0.6,-0.9 l 0.1,-1.15 0.2,-0.4 q 0.65,-1.6 2,-2.4 l 0.05,0 m -4.1,3.1 0.2,1.25 -0.05,0 q -1.1,-0.6 -1.65,-2.45 -0.7,-2.4 0.05,-3.25 0.55,-0.55 1.3,3.15 l 0.15,1.3 m -3.7,-1.45 0.65,0.2 0.55,0.35 0.1,0 0.7,1.75 -0.35,0.35 -0.15,0.5 q 0,0.15 -0.65,-0.2 -1.5,-0.85 -1.6,-2.2 -0.05,-0.75 0.75,-0.75 m 3,2.8 q 0.2,0.3 -0.05,0.55 l -0.05,0 -0.55,0.05 q -0.35,-0.15 -0.3,-0.55 l 0.35,-0.35 0.05,0 q 0.4,-0.05 0.55,0.3 m -1.25,4.65 q -0.45,-0.2 -0.7,-1.1 -0.3,-1.1 1.4,-2.05 1.85,-1 2.45,-0.2 0.4,0.6 0.3,1.9 l -1.6,0.4 -1.4,1.1 -0.45,-0.05 m 3.5,-0.1 0.2,0.6 -0.2,1.2 q 0.15,0.95 0.7,1.6 l 2.9,2.85 q 2.2,1.85 0.95,2.8 l -0.8,0.5 -0.05,0 -1.3,-2.05 q -0.25,0.1 -0.45,-0.2 l -1.25,-1.55 -1.55,-1.3 q -1.05,-1.05 -0.65,-2.25 -0.55,-0.25 -0.7,-0.8 l -0.05,-0.5 q 0.15,-1.05 1.05,-1.35 l 0.9,0.1 0.3,0.35 m 19.25,-1.5 q -1.45,-0.7 -2.3,-3.5 -0.65,-2.3 0.25,-4.25 1.05,-2.25 3.6,-1.25 2.2,0.85 2.8,5.1 0.15,1.4 -0.8,4 l -3.55,-0.1 m 0.1,4.6 -1.5,1.8 -0.6,-0.8 0.25,-1.1 0.75,-0.8 0.3,-0.05 q 0.7,0.45 0.8,0.95 m 1.3,3.65 q -0.5,0.8 -1.25,1.2 -0.9,0.45 -1.55,-0.15 l 0,-0.1 -0.05,0.05 -0.1,-0.15 Q -6.25,-43 -5.65,-44 l 0.25,-0.55 q 0.55,-1.45 1.75,-1.5 0.7,0 1.1,0.5 0.45,0.55 0.2,1.2 -0.1,0.35 -0.55,0.9 l -0.05,0.05 m -6.5,-0.25 -0.3,0.5 q -0.45,1 0.05,2.5 -0.7,-0.3 -1.6,0 0.2,-0.35 0,-0.85 l -0.75,-0.9 q 0.35,-0.5 0.35,-1.1 l -0.2,-1 q -0.05,-0.6 0.55,-0.8 0.75,-0.25 1.3,0.3 0.5,0.5 0.6,1.35 m 4.25,2.5 q 1.4,0.15 2.45,-1.15 l 0,0.2 q 0,0.65 1,1.45 0.4,0.3 0.8,0.45 l -0.35,0.6 q -1.2,-0.85 -2.55,-0.85 -0.95,0 -1.25,0.6 -0.4,-0.65 -0.1,-1.3 m -12.85,3.45 -1.05,-0.05 q -0.3,-0.4 -0.25,-1 l 0.05,-0.2 q 0.15,-0.95 1,-1.25 0.75,-0.35 1.35,0.25 l 0.35,0 q 1.15,-0.25 3.55,-1.65 l 0.85,-0.6 0.4,0.6 0.25,1 -0.4,0.15 q -1.8,1.15 -2.55,1.5 l -1.25,0.8 -0.65,1.05 -0.15,-0.05 0,-0.15 -0.35,-0.3 -0.6,-0.6 -0.05,0 0.45,0.9 0.25,0.25 0.35,0.15 0.05,0.35 q -0.1,1.2 -1,1.35 -0.95,0.2 -1.3,-0.6 -0.3,-0.7 0,-1.5 0.5,0.2 0.75,-0.4 l -0.05,0 m 0.25,-0.15 0.1,-0.1 -0.05,-0.1 -0.15,0.15 q 0.05,0.1 0.1,0.05 m 7.4,-1.05 1.1,-0.55 q 0.85,1.8 2,3.25 l 1.3,1.5 q 1.25,1.1 2.95,1.6 -0.05,2.3 -2.45,1.45 -2,-0.75 -3.5,-2.45 -1.45,-1.6 -1.75,-3.7 -0.1,-0.75 0.35,-1.1 m -0.25,4.35 0.5,0.7 q 2.05,2.65 5.2,3.3 l 0.9,0 q 0.2,1.1 -0.2,1.4 L -5.5,-29 q -1.55,-0.15 -2.7,-0.7 -1.3,-0.75 -2,-1.8 -1.5,-2.25 -0.45,-3.05 m -0.65,7.3 0.2,1.45 0.35,1.25 -0.35,-0.15 q -1.25,-0.3 -0.8,-1.7 0.2,-0.6 0.6,-0.85 m 9.2,-4.6 q 0.9,0.6 1.8,0.25 0.55,0.95 0.15,1.7 L -1,-29.2 q -0.7,0.35 -1.1,0.15 -0.8,-0.4 -0.8,-1 -0.1,-1.35 0.75,-1.8 l 0.05,0 m 1.95,3.2 q 0.4,0.75 0.1,1.6 -0.3,0.85 -1.15,0.9 -0.95,0 -1.4,-0.6 l -0.2,-0.75 0.05,-1.05 0.55,0.3 q 0.95,0.4 2.05,-0.4 m -2.55,3.05 q 0.75,0.7 1.9,0.5 0.45,-0.05 0.85,-0.45 0.25,0.65 -0.2,1.2 l -1.4,0.05 -1,-1 -0.15,-0.3 m -22.6,-18 q 0.1,1.15 0.75,2.45 1.05,2.2 4.05,2.1 l 0,0.25 0.1,0.25 q -0.95,0.5 -2.3,-0.2 -1.15,-0.6 -1.9,-1.6 -0.55,-0.8 -0.9,-2.15 -0.4,-1.55 -0.05,-2.4 l 0.05,-0.05 0.2,0.1 0,1.25 m 2.35,43.4 0.1,0.5 q 0.15,0.25 0,0.5 l -0.45,0.45 q -0.5,0.4 -1.15,0.35 l -0.05,0 -0.4,-0.1 -0.15,-0.2 Q -25.3,1 -25,0.7 q 0.7,-0.8 1.55,-0.8 l 0.25,0.05 0.25,-0.15 M -9,-18.8 l -0.4,-0.3 -0.05,-0.05 q -0.8,-0.45 -1.9,0 -2.1,0.8 -3.65,3.8 l 0.15,1.3 q 0,1.35 -1.5,1.85 l -1.2,-0.15 q -0.45,-0.35 -0.6,-1.05 l -0.25,-0.3 -1.05,-0.75 q -0.35,-0.6 0,-1.25 0.6,-1 1.75,-0.85 1.05,-0.4 2.4,-1.9 1.4,-1.6 2.4,-2 l 0.3,-0.2 q -0.7,-0.95 -0.45,-2 0.25,-1.15 1.45,-1.15 l 1.65,0.7 q 1.3,0.45 1.85,1.6 l 0.7,1.55 0,0.35 q -0.05,0.45 -0.95,0.65 L -9,-18.8 m -10,6.3 0.45,0.8 q 1.05,1.15 2.1,0.8 l 0.35,-0.1 0.2,-0.1 0,0.05 0.1,-0.05 q 0.65,0 0.55,0.65 0,0.55 -0.4,1.45 0.5,0.5 1.25,2.5 l 0.55,1.3 q 0.3,0.75 0.15,1.3 l -0.15,0.3 -1.45,0.05 -0.25,-0.05 -0.1,0 -0.2,-0.75 -1.35,-3.1 -1.5,-2.6 -0.45,-0.55 q -1.25,-1.05 -0.5,-2.55 l 0.65,0.65 m 3.3,9.7 q 0.55,0.7 1.45,0.7 0.1,0.4 -0.5,1.1 l -1.3,0.95 q -1.75,1.15 -2.25,1.3 -1.3,0.4 -2.4,-0.55 -1,-0.85 0.1,-1.75 l 2,-1.05 q 1.8,-0.75 2.9,-0.7 m -4.95,5.45 Q -20.6,3.3 -21.1,3.8 l -0.1,0.05 -0.05,0.1 -0.1,0.05 -0.1,0.1 -0.5,0 -0.25,-0.45 q -0.1,-0.9 0.8,-1.45 l 0.5,0 q 0.2,0.15 0.25,0.45"
       id="path21"
       style="fill:#473b2a;fill-opacity:1;stroke:none" />
    <path
       d="M -0.65,-60.1"
       id="path23"
       style="fill:none;stroke:none" />
    <path
       d="m -17.75,-5.95 m 0,0 -0.25,-0.6 -1.7,0.6 -1.3,0.5 q -3.55,1.5 -5.2,3.6 l -0.35,0.95 q -0.5,2.25 0.75,4.65 l 0.2,0.2 1.4,1.05 q 1.6,0.9 4.25,0.9 2.95,0.05 5.8,1.1 4.55,1.6 7.4,2.2 l 7.7,0.45 4.35,-0.3 4.25,-0.55 2.7,-1 Q 14,7 14.95,6.8 l 2.4,-0.4 2.45,-0.55 q 4.05,-2.4 4.05,-5.15 0,-1.45 -1.25,-2.95 L 22.3,-2.4 Q 19.95,-3.1 19,-3.8 l -1.3,-1.05 -1.45,-0.85 -2.65,-0.8 -0.25,0.55 -1.1,2.2 q 1.2,0.1 4.65,1.8 l 0.95,0.8 q 0.45,0.5 0.65,0.45 l 1.75,0.15 1.15,0.75 Q 21.9,0.75 21.6,1.4 21.35,2 20.65,2.2 19.35,2.6 18,1.55 l -0.4,-0.5 -0.45,0.5 q 0.45,0 1.1,0.55 0.5,0.5 0.6,1.15 0.1,0.7 -0.3,1.2 Q 18.15,5 17.3,4.8 16.55,4.65 16.2,4.1 15.65,3.45 15.55,2.6 14.35,2.95 12.8,2.15 L 10.35,0.5 Q 9.5,-0.15 9,-0.9 8.4,-1.85 8.65,-2.55 7.9,-3.25 8.25,-4.85 l 1.1,-2.65 0.15,-0.3 -0.35,-0.1 -10.8,-0.9 -3.1,0.1 -7.6,0.85 -1.5,0.25 0.05,0.1 1.15,2.65 q 0.35,1.55 -0.45,2.3 0.3,0.7 -0.3,1.65 -0.5,0.8 -1.35,1.4 l -2.45,1.65 q -1.55,0.8 -2.75,0.45 -0.05,0.75 -0.7,1.5 -0.35,0.55 -1.1,0.7 -0.8,0.2 -1.2,-0.35 -0.4,-0.5 -0.3,-1.2 0.05,-0.65 0.6,-1.15 0.65,-0.55 1.1,-0.55 L -22,1.05 -22.45,1.55 Q -23.75,2.6 -25.1,2.2 -25.75,2 -26.05,1.4 -26.3,0.75 -25.8,0.2 l 1.15,-0.75 1.75,-0.15 q 0.15,0.05 0.65,-0.45 l 0.95,-0.8 q 3.2,-1.7 4.65,-1.8 l -1.1,-2.2"
       id="path25"
       style="fill:#000000;fill-opacity:0.15700001;stroke:none" />
    <path
       d="M -17.75,-5.95"
       id="path27"
       style="fill:none;stroke:none" />
    <path
       d="m 3.2,-39.25 m 0,0 0.05,0.8 0.45,0.75 q 0.55,-0.9 0.35,-1.6 l -0.85,0.05 m -5.95,-3.05 q -1.05,1.3 -2.45,1.15 -0.3,0.65 0.1,1.3 0.3,-0.6 1.25,-0.6 1.35,0 2.55,0.85 l 0.35,-0.6 q -0.4,-0.15 -0.8,-0.45 -1,-0.8 -1,-1.45 l 0,-0.2"
       id="path29"
       style="fill:#8e877d;fill-opacity:1;stroke:none" />
    <path
       d="M 3.2,-39.25"
       id="path31"
       style="fill:none;stroke:none" />
    <path
       d="m 3.55,-68.7 m 0,0 q -1.65,1 -2.2,2.7 -0.5,1.5 0.6,3.45 0.95,1.6 2.4,2.65 1.45,1.1 3.15,0.5 1.6,-0.6 2.55,-2.25 0.85,-1.4 0.2,-3.15 -1.1,-3.4 -1.95,-4.6 L 8.2,-69.5 7.75,-69.9 6.9,-70.05 q -2.25,0.65 -3.35,1.35 m 2.7,7.2 0.1,-0.05 0.45,-0.1 0.3,0.3 -0.35,0.15 -1,-0.2 0.4,-0.1 0.1,0 m -3.9,5.35 0.85,0.05 q 0.45,-0.4 0.2,-0.9 l 0,-0.1 Q 3.3,-57.75 2.55,-57.55 1.8,-57.35 2,-56.7 l 0.35,0.55 m 1.8,0.7 -1.35,0.1 q -0.25,0.3 -0.35,0.8 l -0.05,0.05 -0.05,0.25 q 0,0.4 0.3,0.75 0.35,0.3 0.75,0.3 0.7,0 1,-0.75 l 0,-0.1 0.05,-0.05 q 0.35,-0.55 0,-1.05 l -0.3,-0.3 m 13.95,-5.3 q -0.55,-0.45 -1.25,-0.55 -0.8,-0.1 -1.35,0.65 l -0.35,0.8 -0.4,-0.55 -0.8,-0.05 -0.05,0.05 q -0.35,0.15 -0.35,0.65 0,0.5 0.35,0.65 l 0.05,0 q 0.45,0.2 0.8,0 l 0.3,-0.2 -0.05,0.1 q -0.05,0.35 0.2,0.7 0.25,0.35 0.65,0.4 l 0.05,0 0.3,0.25 q 0.85,0.5 1.65,-0.15 0.7,-0.55 0.75,-1.5 0.05,-0.7 -0.5,-1.25 m -2.7,4.7 q -0.05,0.25 0.2,0.6 0.35,0.45 0.8,0 l 0.25,-0.25 q 0.4,-0.7 -0.4,-0.95 -0.75,-0.25 -0.85,0.6"
       id="path33"
       style="fill:#eae4da;fill-opacity:1;stroke:none" />
    <path
       d="M 3.55,-68.7"
       id="path35"
       style="fill:none;stroke:none" />
  </g>
</svg>
